# AST/ASF file generated using VICON BodyLanguage
# -----------------------------------------------
:version 1.10
:name VICON
:units
  mass 1.0
  length 0.45
  angle deg
:documentation
   .ast/.asf automatically generated from VICON data using
   VICON BodyBuilder and BodyLanguage model FoxedUp or BRILLIANT.MOD
:root
   order TX TY TZ RX RY RZ
   axis XYZ
   position 0 0 0  
   orientation 0 0 0 
:bonedata
  begin
     id 1 
     name lhipjoint
     direction 0.625129 -0.738222 0.253461 
     length 2.5165 
     axis 0 0 0  XYZ
  end
  begin
     id 2 
     name lfemur
     direction 0.34202 -0.939693 0  
     length 7.54288  
     axis 0 0 20  XYZ
    dof rx ry rz
    limits (-160.0 20.0)
           (-70.0 70.0)
           (-60.0 70.0)
  end
  begin
     id 3 
     name ltibia
     direction 0.34202 -0.939693 0   
     length 7.71864   
     axis 0 0 20   XYZ
    dof rx
    limits (-10.0 170.0)
  end
  begin
     id 4 
     name lfoot
     direction 0.0772037 -0.212115 0.97419   
     length 2.18429   
     axis -90 7.62852e-016 20   XYZ
    dof rx rz
    limits (-45.0 90.0)
           (-70.0 20.0)
  end
  begin
     id 5 
     name ltoes
     direction 1.53513e-011 -4.21834e-011 1   
     length 1.09718   
     axis -90 7.62852e-016 20   XYZ
    dof rx
    limits (-90.0 20.0)
  end
  begin
     id 6 
     name rhipjoint
     direction -0.621946 -0.740623 0.254285   
     length 2.50835  
     axis 0 0 0  XYZ 
  end
  begin
     id 7 
     name rfemur
     direction -0.34202 -0.939693 0   
     length 7.43366   
     axis 0 0 -20   XYZ
    dof rx ry rz
    limits (-160.0 20.0)
           (-70.0 70.0)
           (-70.0 60.0)
  end
  begin
     id 8 
     name rtibia
     direction -0.34202 -0.939693 0   
     length 7.77122   
     axis 0 0 -20   XYZ
    dof rx
    limits (-10.0 170.0)
 end
 begin
     id 9 
     name rfoot
     direction -0.082694 -0.2272 0.970331   
     length 2.2293  
     axis -90 -7.62852e-016 -20   XYZ
    dof rx rz
    limits (-45.0 90.0)
           (-20.0 70.0)
  end
  begin
     id 10 
     name rtoes
     direction -1.53565e-011 -4.21695e-011 1   
     length 1.1178   
     axis -90 -7.62852e-016 -20   XYZ
    dof rx
    limits (-90.0 20.0)
  end
  begin
     id 11 
     name lowerback
     direction -0.000695208 0.988391 -0.151929   
     length 1.95077   
     axis 0 0 0   XYZ
    dof rx ry rz
    limits (-20.0 45.0)
           (-30.0 30.0)
           (-30.0 30.0)
  end
  begin
     id 12 
     name upperback
     direction -0.00268925 0.999885 -0.0149203   
     length 1.96246   
     axis 0 0 0   XYZ
    dof rx ry rz
    limits (-20.0 45.0)
           (-30.0 30.0)
           (-30.0 30.0)
  end
  begin
     id 13 
     name thorax
     direction -0.000848408 0.998481 0.0550912   
     length 2.00867   
     axis 0 0 0   XYZ
    dof rx ry rz
    limits (-20.0 45.0)
           (-30.0 30.0)
           (-30.0 30.0)
  end
  begin
     id 14 
     name lowerneck
     direction -0.00577709 0.998999 0.0443608   
     length 1.75762   
     axis 0 0 0   XYZ
    dof rx ry rz
    limits (-20.0 45.0)
           (-30.0 30.0)
           (-30.0 30.0)
  end
  begin
     id 15 
     name upperneck
     direction 0.0320945 0.999136 0.0264105   
     length 1.72601   
     axis 0 0 0   XYZ
    dof rx ry rz
    limits (-20.0 45.0)
           (-30.0 30.0)
           (-30.0 30.0)
  end
  begin
     id 16
     name head
     direction 0.0120552 0.999916 0.00480151  
     length 1.79973  
     axis 0 0 0   XYZ
    dof rx ry rz
    limits (-20.0 45.0)
           (-30.0 30.0)
           (-30.0 30.0)
  end
  begin
     id 17 
     name lclavicle
     direction 0.909 0.371533 -0.188897  
     length 3.47956  
     axis 0 0 0   XYZ
    dof ry rz
    limits (-20.0 10.0)
           (0.0 20.0)
  end
  begin
     id 18 
     name lhumerus
     direction 1 -4.48963e-011 -6.48352e-028   
     length 5.52302   
     axis 180 -30 -90   XYZ
    dof rx ry rz
    limits (-60.0 90.0)
           (-90.0 90.0)
           (-90.0 90.0)
  end
  begin
     id 19
     name lradius
     direction 1 -4.48968e-011 -4.78536e-027   
     length 3.58675   
     axis 180 -30 -90   XYZ
    dof rx
    limits (-10.0 170.0)
  end
  begin
     id 20
     name lwrist
     direction 1 -4.48942e-011 -9.9435e-027   
     length 1.79337   
     axis 8.54312e-015 90 90   XYZ
    dof ry
    limits (-180.0 0.0)
 end
  begin
     id 21 
     name lhand
     direction 1 -4.4904e-011 -1.9887e-026   
     length 0.536412   
     axis 1.26896e-014 90 90   XYZ
    dof rx rz
    limits (-90.0 90.0)
           (-45.0 45.0)
  end
  begin
     id 22 
     name lfingers
     direction 1 -4.48893e-011 -3.9774e-026   
     length 0.432469   
     axis 2.53792e-014 90 90   XYZ
    dof rx
    limits (0.0 90.0)
  end
  begin
     id 23
     name lthumb
     direction 0.707107 -6.34934e-011 0.707107   
     length 0.620942   
     axis -90 45 2.85299e-015   XYZ
    dof rx rz
    limits (-45.0 45.0)
           (-45.0 45.0)
  end
  begin
     id 24 
     name rclavicle
     direction -0.89595 0.416672 -0.153813   
     length 3.44099  
     axis 0 0 0   XYZ 
    dof ry rz
    limits (-10.0 20.0)
           (-20.0 0.0)
  end
  begin
     id 25 
     name rhumerus
     direction -1 -4.48952e-011 5.57804e-028  
     length 5.8478   
     axis 180 30 90   XYZ
    dof rx ry rz
    limits (-90.0 60.0)
           (-90.0 90.0)
           (-90.0 90.0)
  end
  begin
     id 26 
     name rradius
     direction -1 -4.48967e-011 -7.93646e-027   
     length 3.62717   
     axis 180 30 90   XYZ
    dof rx
    limits (-10.0 170.0)
  end
  begin
     id 27 
     name rwrist
     direction -1 -4.49008e-011 -9.9435e-027   
     length 1.81359   
     axis 8.54312e-015 -90 -90   XYZ
    dof ry
    limits (-180.0 0.0)
  end
  begin
     id 28
     name rhand
     direction -1 -4.48812e-011 -1.9887e-026   
     length 0.650516   
     axis 1.26896e-014 -90 -90   XYZ
    dof rx rz
    limits (-90.0 90.0)
           (-45.0 45.0)
  end
  begin
     id 29
     name rfingers
     direction -1 -4.49228e-011 -3.9774e-026   
     length 0.524463   
     axis 2.53792e-014 -90 -90   XYZ
    dof rx
    limits (0.0 90.0)
  end
  begin
     id 30
     name rthumb
     direction -0.707107 -6.34912e-011 0.707107   
     length 0.753027   
     axis -90 -45 -2.85299e-015   XYZ
    dof rx rz
    limits (-45.0 45.0)
           (-45.0 45.0)
  end
:hierarchy
  begin
    root lhipjoint rhipjoint lowerback
    lhipjoint lfemur
    lfemur ltibia
    ltibia lfoot
    lfoot ltoes
    rhipjoint rfemur
    rfemur rtibia
    rtibia rfoot
    rfoot rtoes
    lowerback upperback
    upperback thorax
    thorax lowerneck lclavicle rclavicle
    lowerneck upperneck
    upperneck head
    lclavicle lhumerus
    lhumerus lradius
    lradius lwrist
    lwrist lhand lthumb
    lhand lfingers
    rclavicle rhumerus
    rhumerus rradius
    rradius rwrist
    rwrist rhand rthumb
    rhand rfingers
  end

#!OML:ASF F:\VICON\USERDATA\INSTALL\rory3\rory3.ASF
:FULLY-SPECIFIED
:DEGREES
240
root -8.3734 18.1244 13.997 -1.52156 -19.1758 0.422541
lowerback 10.2694 1.07612 -1.02704
upperback 1.88588 1.18938 -2.59863
thorax -3.7579 0.582652 -2.28204
lowerneck -1.33692 2.2202 0.586949
upperneck 11.9064 2.84792 0.738202
head 4.12273 1.44965 0.254922
rclavicle 2.97183e-014 -7.95139e-015
rhumerus -30.5709 -5.48139 -81.6345
rradius 30.6682
rwrist 17.6357
rhand -18.0226 16.711
rfingers 7.12502
rthumb 8.24855 -13.1079
lclavicle 2.97183e-014 -7.95139e-015
lhumerus -33.4294 2.54619 83.8664
lradius 8.82954
lwrist 22.4481
lhand -35.6901 31.9722
lfingers 7.12502
lthumb -8.81073 61.7683
rfemur -2.47621 3.89793 17.7896
rtibia 57.2377
rfoot 26.0167 -5.35788
rtoes 5.13506
lfemur -9.509 -2.05272 -25.1924
ltibia 20.5347
lfoot -3.99796 5.4484
ltoes -9.44768
241
root -8.39802 18.1346 14.16 -1.61182 -19.0155 0.629103
lowerback 10.2898 0.971744 -1.2498
upperback 1.87707 1.02528 -2.60846
thorax -3.78727 0.503659 -2.14553
lowerneck -1.51532 2.27692 0.658266
upperneck 12.0785 2.9339 0.592264
head 4.22381 1.48876 0.201886
rclavicle 2.47487e-014 -3.18055e-014
rhumerus -30.6512 -5.66555 -81.6885
rradius 30.1519
rwrist 19.1615
rhand -17.5996 17.321
rfingers 7.12502
rthumb 8.65674 -12.4815
lclavicle 2.47487e-014 -3.18055e-014
lhumerus -32.4469 2.74951 83.8402
lradius 8.84943
lwrist 20.5017
lhand -38.7807 31.196
lfingers 7.12502
lthumb -11.7922 60.844
rfemur -4.06205 3.52584 17.4351
rtibia 58.9681
rfoot 24.988 -5.39316
rtoes 4.71159
lfemur -8.59776 -1.91312 -25.5916
ltibia 20.0472
lfoot -4.30524 5.51379
ltoes -11.7959
242
root -8.42413 18.1407 14.3151 -1.476 -18.9932 0.614836
lowerback 10.19 0.929874 -1.35668
upperback 1.84607 0.963722 -2.5379
thorax -3.76894 0.474882 -2.00176
lowerneck -1.39048 2.40142 0.6666
upperneck 11.9102 3.09913 0.624245
head 4.13817 1.57192 0.214079
rclavicle 1.41137e-014 -3.10104e-014
rhumerus -30.7724 -5.6271 -81.7723
rradius 29.6862
rwrist 19.9816
rhand -17.6421 18.4708
rfingers 7.12502
rthumb 8.61571 -11.3334
lclavicle 1.41137e-014 -3.10104e-014
lhumerus -31.3514 2.87026 83.7963
lradius 9.06958
lwrist 18.7058
lhand -41.93 44.0457
lfingers 7.12502
lthumb -14.8277 73.4952
rfemur -5.63105 3.29749 17.3729
rtibia 60.5215
rfoot 23.4271 -5.68484
rtoes 5.08822
lfemur -8.03905 -1.58012 -25.7314
ltibia 19.6148
lfoot -4.36978 5.39955
ltoes -11.6719
243
root -8.44696 18.1413 14.4656 -1.40074 -18.6507 0.817943
lowerback 10.0532 0.830838 -1.5312
upperback 1.86357 0.817156 -2.57261
thorax -3.68034 0.404221 -1.91722
lowerneck -1.47445 2.41763 0.721476
upperneck 11.9212 3.11738 0.624903
head 4.15972 1.58348 0.206912
rclavicle -3.4191e-014 5.56597e-015
rhumerus -30.9842 -5.85391 -81.8174
rradius 29.3551
rwrist 20.95
rhand -17.6359 18.6768
rfingers 7.12502
rthumb 8.62174 -11.1271
lclavicle -3.4191e-014 5.56597e-015
lhumerus -30.1401 2.84296 83.8009
lradius 9.25666
lwrist 17.2912
lhand -37.5284 36.8505
lfingers 7.12502
lthumb -10.5843 66.5639
rfemur -7.14217 2.76434 17.0711
rtibia 61.9316
rfoot 21.878 -5.78524
rtoes 6.06274
lfemur -7.51208 -1.56395 -26.0964
ltibia 19.3541
lfoot -4.54203 5.18827
ltoes -9.60074
244
root -8.46837 18.1419 14.6146 -1.33553 -18.0776 1.02765
lowerback 10 0.648199 -1.68077
upperback 1.83115 0.55994 -2.58073
thorax -3.69151 0.278597 -1.80742
lowerneck -1.63864 2.38046 0.644861
upperneck 12.1358 3.06324 0.679309
head 4.26718 1.5559 0.241128
rclavicle -6.50026e-014 1.59028e-015
rhumerus -31.3348 -6.12916 -81.7516
rradius 29.0582
rwrist 21.8257
rhand -17.7003 18.7045
rfingers 7.12502
rthumb 8.55956 -11.102
lclavicle -6.50026e-014 1.59028e-015
lhumerus -29.0279 2.85074 83.8496
lradius 9.43383
lwrist 15.9668
lhand -32.5041 39.2368
lfingers 7.12502
lthumb -5.73548 69.1392
rfemur -8.61064 2.03277 16.7485
rtibia 63.1498
rfoot 20.3009 -5.62182
rtoes 6.28418
lfemur -6.99246 -1.76868 -26.4568
ltibia 19.2826
lfoot -4.97784 4.97887
ltoes -8.2258
245
root -8.49434 18.1429 14.77 -1.34282 -17.7529 0.960836
lowerback 10.0221 0.525696 -1.64318
upperback 1.81429 0.403527 -2.51161
thorax -3.72441 0.201235 -1.73671
lowerneck -1.38728 2.43326 0.517591
upperneck 12.1009 3.11858 0.897238
head 4.19842 1.58681 0.333734
rclavicle 6.55989e-015 2.54444e-014
rhumerus -31.7431 -6.43017 -81.6783
rradius 28.7093
rwrist 22.6143
rhand -17.7543 18.4796
rfingers 7.12502
rthumb 8.50744 -11.329
lclavicle 6.55989e-015 2.54444e-014
lhumerus -28.0555 2.88778 83.8461
lradius 9.68677
lwrist 14.636
lhand -28.0822 45.2187
lfingers 7.12502
lthumb -1.46527 75.1934
rfemur -9.84062 1.63766 16.793
rtibia 64.1828
rfoot 18.2781 -5.84456
rtoes 6.49887
lfemur -6.34097 -1.7157 -26.5441
ltibia 19.2049
lfoot -5.28578 4.85674
ltoes -7.70562
246
root -8.52063 18.1442 14.9307 -1.33423 -17.4815 0.813403
lowerback 9.88314 0.449045 -1.47483
upperback 1.95392 0.330231 -2.46205
thorax -3.5027 0.163184 -1.76722
lowerneck -1.4788 2.46208 0.504136
upperneck 12.0639 3.14312 1.03421
head 4.20029 1.60467 0.38372
rclavicle 5.09883e-014 2.3059e-014
rhumerus -31.9983 -6.99736 -81.5839
rradius 28.3969
rwrist 23.3047
rhand -17.5359 18.3249
rfingers 7.12502
rthumb 8.71818 -11.4751
lclavicle 5.09883e-014 2.3059e-014
lhumerus -26.8955 2.80773 83.8429
lradius 10.0024
lwrist 12.003
lhand -36.7387 30.6778
lfingers 7.12502
lthumb -9.82254 60.4287
rfemur -11.0075 1.40139 16.9608
rtibia 65.0229
rfoot 15.3195 -6.28503
rtoes 4.03292
lfemur -5.72128 -1.61106 -26.5635
ltibia 19.1532
lfoot -5.33015 4.68767
ltoes -6.7508
247
root -8.54372 18.1418 15.0876 -1.3209 -16.9936 0.957502
lowerback 9.79718 0.32403 -1.62756
upperback 2.01112 0.155451 -2.40911
thorax -3.39957 0.0781463 -1.60259
lowerneck -1.66788 2.45284 0.472102
upperneck 12.1341 3.13172 1.02953
head 4.26255 1.59791 0.391409
rclavicle -4.67144e-015 1.66979e-014
rhumerus -32.3456 -7.13715 -81.4555
rradius 28.2347
rwrist 23.2227
rhand -17.3696 18.0997
rfingers 7.12502
rthumb 8.8787 -11.6935
lclavicle -4.67144e-015 1.66979e-014
lhumerus -25.7733 2.79273 83.9766
lradius 10.6483
lwrist 8.9477
lhand -36.2878 32.123
lfingers 7.12502
lthumb -9.38751 61.894
rfemur -12.2233 0.906291 16.7646
rtibia 65.699
rfoot 11.5568 -6.22936
rtoes -2.21764
lfemur -5.24562 -1.72724 -26.8827
ltibia 19.1918
lfoot -5.49107 4.50885
ltoes -6.82828
248
root -8.5674 18.1369 15.2373 -1.44622 -16.4288 1.43756
lowerback 9.98686 0.174754 -2.10029
upperback 1.94813 -0.103118 -2.47879
thorax -3.5736 -0.0451295 -1.37789
lowerneck -1.6241 2.43655 0.406147
upperneck 12.0754 3.10121 1.14878
head 4.2294 1.58529 0.439896
rclavicle 5.26779e-015 -1.82882e-014
rhumerus -32.9295 -7.06664 -81.5163
rradius 28.356
rwrist 22.6903
rhand -17.2371 16.9556
rfingers 7.12502
rthumb 9.00654 -12.8321
lclavicle 5.26779e-015 -1.82882e-014
lhumerus -24.8951 2.79684 84.0367
lradius 11.2655
lwrist 9.5986
lhand -36.6327 29.0283
lfingers 7.12502
lthumb -9.72031 58.784
rfemur -13.4129 0.29023 16.2031
rtibia 66.1995
rfoot 9.94146 -6.27808
rtoes -2.44835
lfemur -4.75503 -1.90201 -27.4975
ltibia 19.2466
lfoot -5.83123 4.48393
ltoes -8.65125
249
root -8.59648 18.1319 15.3848 -1.56363 -16.0129 1.71998
lowerback 10.1459 0.0548079 -2.4693
upperback 1.91449 -0.30868 -2.47506
thorax -3.69653 -0.142241 -1.14048
lowerneck -1.64094 2.38358 0.385965
upperneck 12.1581 3.02814 1.16542
head 4.26228 1.54912 0.447322
rclavicle 2.6339e-014 -2.62396e-014
rhumerus -33.4015 -6.93825 -81.6282
rradius 28.3789
rwrist 21.9518
rhand -17.2341 16.1068
rfingers 7.12502
rthumb 9.00947 -13.6808
lclavicle 2.6339e-014 -2.62396e-014
lhumerus -24.0717 2.84072 84.0272
lradius 12.1282
lwrist 8.22901
lhand -38.2154 26.4136
lfingers 7.12502
lthumb -11.247 56.0921
rfemur -14.5481 -0.164214 15.9209
rtibia 66.5352
rfoot 8.23463 -6.31053
rtoes -3.72804
lfemur -4.20574 -1.92193 -27.896
ltibia 19.3253
lfoot -6.19761 4.49842
ltoes -10.2358
250
root -8.62471 18.1241 15.5424 -1.61443 -15.5523 1.80125
lowerback 10.0495 -0.0733014 -2.53887
upperback 1.92549 -0.479002 -2.42888
thorax -3.63098 -0.225921 -1.03089
lowerneck -1.62973 2.22305 0.445624
upperneck 12.2482 2.82597 1.00047
head 4.29729 1.44466 0.374346
rclavicle -2.77305e-014 1.11319e-014
rhumerus -33.7749 -7.3888 -81.4514
rradius 27.9514
rwrist 21.8204
rhand -17.5583 16.4411
rfingers 7.12502
rthumb 8.69658 -13.3597
lclavicle -2.77305e-014 1.11319e-014
lhumerus -23.3026 2.82126 84.1099
lradius 12.7847
lwrist 5.95013
lhand -37.6874 25.6178
lfingers 7.12502
lthumb -10.7378 55.3233
rfemur -15.585 -0.626231 15.8401
rtibia 66.6928
rfoot 7.92148 -6.92092
rtoes -0.928097
lfemur -3.69116 -1.99238 -28.1119
ltibia 19.5278
lfoot -6.41896 4.31426
ltoes -10.0515
251
root -8.65261 18.1099 15.6948 -1.7559 -14.9343 2.06963
lowerback 10.0903 -0.230485 -2.7871
upperback 1.97981 -0.71373 -2.43586
thorax -3.59396 -0.340082 -0.868037
lowerneck -1.49754 2.21226 0.458383
upperneck 12.0725 2.81054 1.02355
head 4.20739 1.4385 0.375053
rclavicle 2.97183e-014 -1.59028e-015
rhumerus -34.107 -8.01377 -81.1596
rradius 27.5451
rwrist 21.8204
rhand -17.7447 16.715
rfingers 7.12502
rthumb 8.51671 -13.0932
lclavicle 2.97183e-014 -1.59028e-015
lhumerus -22.3857 2.77564 84.1937
lradius 13.5223
lwrist 5.50565
lhand -34.7971 26.6199
lfingers 7.12502
lthumb -7.94898 56.4504
rfemur -16.5075 -1.15273 15.5586
rtibia 66.6752
rfoot 7.36939 -7.53667
rtoes 0.132463
lfemur -3.31917 -2.20097 -28.4524
ltibia 20.0186
lfoot -6.68816 4.0799
ltoes -9.80833
